<?xml version="1.0" encoding="UTF-8"?>
<svg version="1.1" xmlns="http://www.w3.org/2000/svg" width="500" height="500">
<path d="M0 0 C1.63213211 0.5344321 3.26429436 1.06877213 4.89648438 1.60302734 C18.77409834 6.16562687 32.56515728 10.97163589 46.34619141 15.81665039 C60.98778372 20.96074389 75.67443927 25.96470868 90.375 30.9375 C119.02624105 40.63764669 147.55133424 50.65403813 176.00997925 60.90402222 C187.22908144 64.9437791 198.47118301 68.9023347 209.75488281 72.75878906 C224.24953291 77.7275761 238.67940718 82.8810886 253.11694336 88.01293945 C254.13096725 88.37306122 255.14499115 88.73318298 256.18974304 89.10421753 C258.09425366 89.78068224 259.99849912 90.45789419 261.90242004 91.13601685 C267.41407448 93.09363963 272.94363254 94.98558185 278.5 96.8125 C278.17 97.4725 277.84 98.1325 277.5 98.8125 C266.32487142 97.20939487 255.14975033 95.60623763 243.97463566 94.00303555 C238.31910882 93.19168643 232.66357899 92.38035817 227.00804329 91.56907082 C200.7892323 87.80797101 174.57056878 84.04584949 148.35239828 80.28028727 C138.1276805 78.81179795 127.90292854 77.34354673 117.67816615 75.87536812 C115.11446641 75.50724336 112.55076813 75.13910851 109.98707128 74.77096367 C78.46070943 70.24388484 46.93284152 65.72779052 15.40063334 61.24160594 C9.1886731 60.35771134 2.97691738 59.47239242 -3.23468018 58.58595276 C-4.07826222 58.46557005 -4.92184426 58.34518733 -5.7909894 58.22115666 C-9.91563217 57.63249758 -14.04024708 57.04364374 -18.1648407 56.45464039 C-26.76579902 55.22672646 -35.36748364 54.00414018 -43.97014207 52.7881934 C-49.73648702 51.97273329 -55.50198546 51.15147258 -61.26681167 50.32534438 C-64.52323949 49.85889311 -67.78011874 49.39614701 -71.03787041 48.93902016 C-74.49619373 48.4534496 -77.95292418 47.95783275 -81.40942383 47.45947266 C-82.92170846 47.25100944 -82.92170846 47.25100944 -84.4645443 47.03833485 C-85.37297396 46.90520736 -86.28140362 46.77207987 -87.21736145 46.63491821 C-88.00253552 46.52346277 -88.7877096 46.41200733 -89.59667683 46.29717445 C-91.5 45.8125 -91.5 45.8125 -93.5 43.8125 C-86.37649103 37.71434459 -79.09119564 31.93465886 -71.56420898 26.34448242 C-67.1787572 23.08358541 -62.84758121 19.76660934 -58.5625 16.375 C-53.26304361 12.18435767 -47.9270233 8.04457671 -42.5625 3.9375 C-41.86455322 3.4019751 -41.16660645 2.8664502 -40.44750977 2.31469727 C-39.10736904 1.29060171 -37.75927548 0.2768162 -36.40283203 -0.72558594 C-34.4895687 -2.146841 -34.4895687 -2.146841 -32.82763672 -3.75097656 C-24.14543405 -11.37852497 -9.67245471 -3.19882258 0 0 Z " fill="#5A79BA" transform="translate(186.5,327.1875)"/>
<path d="M0 0 C2.85167072 1.42583536 3.0100807 3.10691197 4.14453125 6.0625 C4.56621582 7.14958252 4.98790039 8.23666504 5.42236328 9.35668945 C5.8811084 10.55898193 6.33985352 11.76127441 6.8125 13 C7.3089341 14.2844074 7.80618617 15.56849891 8.30419922 16.85229492 C9.35446396 19.56112564 10.40169616 22.27109897 11.44677734 24.98193359 C13.56491698 30.46944635 15.71852117 35.94291975 17.87661743 41.41482544 C18.6484353 43.37192493 19.4193294 45.32938676 20.19018555 47.28686523 C26.95844744 64.46396734 33.78082179 81.61970193 40.59301567 98.77941418 C41.9604808 102.2240235 43.32791597 105.6686447 44.6953125 109.11328125 C44.96503498 109.7927437 45.23475746 110.47220615 45.51265335 111.17225838 C58.3252294 143.44981339 71.08926236 175.74662012 83.85464478 208.04286194 C86.34008037 214.33086211 88.82614854 220.61861193 91.3125 226.90625 C102.39165474 254.92447384 102.39165474 254.92447384 107.875 268.8125 C108.34441765 270.00134293 108.34441765 270.00134293 108.82331848 271.21420288 C110.36471962 275.11842631 111.90523173 279.02299691 113.4440918 282.92822266 C116.34607308 290.29071354 119.25586723 297.64988003 122.18841553 305.0002594 C123.60065881 308.54117261 125.00918461 312.08355914 126.41741943 315.62606812 C127.09268077 317.32165567 127.769779 319.01651295 128.4487915 320.71060181 C129.38582454 323.04875537 130.31661667 325.38930334 131.24609375 327.73046875 C131.5265303 328.4254245 131.80696686 329.12038025 132.09590149 329.83639526 C133.23515685 332.72148501 134 334.86662936 134 338 C129.42602311 337.38724332 125.46969355 336.18366359 121.171875 334.515625 C120.18994926 334.1375621 120.18994926 334.1375621 119.18818665 333.75186157 C117.03996475 332.92337391 114.89495173 332.08691386 112.75 331.25 C110.48222014 330.37105499 108.21384571 329.4936563 105.94544983 328.61630249 C104.37448359 328.00847799 102.80379824 327.39992707 101.23338318 326.79067993 C95.60226826 324.60878114 89.95568183 322.47095581 84.30078125 320.3515625 C81.97340351 319.47571967 79.6462708 318.59922896 77.31921387 317.72253418 C75.81980162 317.15941311 74.3193967 316.59892785 72.81799316 316.0411377 C70.72085504 315.261365 68.62771846 314.47164245 66.53515625 313.6796875 C65.342854 313.23351074 64.15055176 312.78733398 62.92211914 312.32763672 C60.02433371 311.01105579 58.87241889 310.48655435 57 308 C56.21262277 305.33682324 55.58279442 302.78107531 55.03271484 300.06860352 C54.77382666 298.85801049 54.77382666 298.85801049 54.5097084 297.62296104 C53.93986976 294.93979941 53.38740705 292.25339903 52.8359375 289.56640625 C52.43779882 287.66401801 52.03922134 285.76172156 51.64022827 283.85951233 C47.55391751 264.2563705 43.82718038 244.58520057 40.17470169 224.89739227 C39.61257472 221.87059557 39.0482906 218.84420822 38.48336792 215.81793213 C29.28306384 166.52646018 20.36037773 117.18416151 11.50753784 67.82925415 C11.01442077 65.08038813 10.52104207 62.33156919 10.02758789 59.58276367 C8.23477533 49.59435161 6.44702526 39.60505327 4.66715622 29.61432648 C4.31612775 27.64534864 3.96423597 25.67652477 3.61233521 23.70770264 C2.98489135 20.1936391 2.36090631 16.67898257 1.73828125 13.1640625 C1.55807434 12.1571637 1.37786743 11.15026489 1.19219971 10.112854 C1.03249695 9.20630066 0.87279419 8.29974731 0.70825195 7.36572266 C0.57014603 6.58766266 0.4320401 5.80960266 0.28974915 5.00796509 C0 3 0 3 0 0 Z " fill="#EE4D23" transform="translate(254,32)"/>
<path d="M0 0 C2.25353569 3.38030354 2.37628354 4.99937205 2.68603516 8.9934082 C2.78598785 10.22932205 2.88594055 11.4652359 2.98892212 12.73860168 C3.08930979 14.09263631 3.18934738 15.44669693 3.2890625 16.80078125 C3.39769477 18.19789815 3.50694755 19.59496692 3.61679077 20.99198914 C3.84573291 23.92794305 4.06866204 26.86427236 4.28710938 29.80102539 C4.56439842 33.52544134 4.85394131 37.24876989 5.1478672 40.97190571 C5.37516333 43.86391088 5.59689768 46.75632243 5.81696701 49.64888573 C5.92162204 51.0190106 6.02763585 52.38903251 6.13515091 53.75893593 C6.67647423 60.70601247 7.10679234 67.65830901 7.30615234 74.62402344 C7.35973404 76.27467804 7.35973404 76.27467804 7.41439819 77.9586792 C6.61002864 83.86204919 2.30470022 87.19081647 -2 90.9375 C-3.25876953 92.1140918 -3.25876953 92.1140918 -4.54296875 93.31445312 C-6.99264095 95.58752105 -9.48266679 97.80230387 -12 100 C-12.70543945 100.61601074 -13.41087891 101.23202148 -14.13769531 101.86669922 C-15.45401676 103.01454949 -16.77073671 104.16194296 -18.08789062 105.30883789 C-21.37617674 108.21715734 -24.56029932 111.23447012 -27.75 114.25 C-38.50619387 124.37480304 -49.42439916 134.30962247 -60.421875 144.171875 C-64.97050267 148.25694826 -69.49734216 152.36432096 -74 156.5 C-80.5634974 162.52718864 -87.14612442 168.53223149 -93.875 174.375 C-97.78994583 177.78479153 -101.61177396 181.29339963 -105.43261719 184.80761719 C-110.25546911 189.24197003 -115.12324023 193.62502901 -120 198 C-121.66692647 199.49971128 -123.33359149 200.99971321 -125 202.5 C-125.82628906 203.2425 -126.65257813 203.985 -127.50390625 204.75 C-129.16222983 206.24482689 -130.81592441 207.7448058 -132.46484375 209.25 C-136.77710786 213.17395597 -141.14747255 216.96568826 -145.6875 220.625 C-149.46752288 223.68299604 -152.95748183 226.83758786 -156.3359375 230.328125 C-158.72536521 232.72877068 -161.28115955 234.91620795 -163.84375 237.12890625 C-169.86493787 242.35381384 -175.73349296 247.75500949 -181.625 253.125 C-185.37865539 256.54172139 -189.16432648 259.91358159 -192.99609375 263.2421875 C-195.22804087 265.20003585 -197.42620859 267.19249902 -199.625 269.1875 C-203.83749911 272.98136566 -208.08947979 276.72654043 -212.375 280.4375 C-213.26759521 281.21806763 -213.26759521 281.21806763 -214.17822266 282.0144043 C-216.97169008 284.42052888 -219.56960068 286.58897368 -223 288 C-220.3657574 282.73151481 -217.01198729 278.50582442 -213.19335938 274.03149414 C-209.66659951 269.86979063 -206.37076085 265.57091749 -203.125 261.1875 C-198.65770022 255.16304359 -194.06258021 249.26624666 -189.35546875 243.42773438 C-185.39448347 238.51011427 -181.53233739 233.52699404 -177.6953125 228.51171875 C-174.48746518 224.3225474 -171.24253579 220.16233945 -168 216 C-163.98523191 210.84451434 -159.97898909 205.68315684 -156 200.5 C-150.30530446 193.08386871 -144.55912408 185.70801416 -138.81445312 178.33056641 C-135.87486662 174.55482734 -132.93752285 170.77734465 -130 167 C-128.83334461 165.49999123 -127.66667793 163.99999124 -126.5 162.5 C-125.9225 161.7575 -125.345 161.015 -124.75 160.25 C-105.5 135.5 -105.5 135.5 -103.74902344 133.2487793 C-102.58556688 131.75288338 -101.42215522 130.25695255 -100.25878906 128.76098633 C-97.29338002 124.94790224 -94.32712738 121.13547936 -91.359375 117.32421875 C-86.22405297 110.72798614 -81.0912807 104.13031163 -76 97.5 C-70.30530446 90.08386871 -64.55912408 82.70801416 -58.81445312 75.33056641 C-55.87486662 71.55482734 -52.93752285 67.77734465 -50 64 C-48.83334461 62.49999123 -47.66667793 60.99999124 -46.5 59.5 C-45.9225 58.7575 -45.345 58.015 -44.75 57.25 C-38.33333333 49 -31.91666667 40.75 -25.5 32.5 C-24.92145264 31.75613037 -24.34290527 31.01226074 -23.74682617 30.24584961 C-22.59082924 28.759614 -21.43474334 27.27344758 -20.27856445 25.78735352 C-17.19788313 21.82734815 -14.11916621 17.86583356 -11.04296875 13.90234375 C-10.07520508 12.65614258 -10.07520508 12.65614258 -9.08789062 11.38476562 C-7.84253619 9.78103581 -6.59772452 8.17688434 -5.35351562 6.57226562 C-4.79728516 5.85619141 -4.24105469 5.14011719 -3.66796875 4.40234375 C-3.17578857 3.76804443 -2.6836084 3.13374512 -2.17651367 2.48022461 C-1 1 -1 1 0 0 Z " fill="#F8A11E" transform="translate(247,123)"/>
<path d="M0 0 C3.16876893 2.91432023 5.19702835 5.78370459 7.25 9.55859375 C7.85191162 10.65550537 8.45382324 11.75241699 9.07397461 12.88256836 C9.38769012 13.46166962 9.70140564 14.04077087 10.02462769 14.63742065 C11.35429581 17.09136371 12.6993539 19.53674971 14.04368591 21.98268127 C14.72619429 23.22465815 15.4079659 24.46704018 16.08900452 25.70982361 C18.98193366 30.98537163 21.94109862 36.22019987 24.9375 41.4375 C25.6505127 42.68055908 25.6505127 42.68055908 26.37792969 43.94873047 C27.37701366 45.68969867 28.3765373 47.43041461 29.37646484 49.17089844 C32.16857643 54.03631032 34.94937203 58.9081882 37.73147583 63.77932739 C39.44033812 66.77110364 41.14989339 69.76248385 42.859375 72.75390625 C43.55143558 73.96500463 44.24349287 75.17610489 44.93554688 76.38720703 C45.27739014 76.98543274 45.6192334 77.58365845 45.97143555 78.20001221 C65 111.5 65 111.5 65.99996948 113.24995422 C66.66672911 114.41677849 67.3334975 115.58359774 68.00027466 116.75041199 C69.66559088 119.66462646 71.33075537 122.57892742 72.99560547 125.4934082 C76.01154606 130.77275664 79.02862341 136.05143944 82.05130005 141.32693481 C83.7432784 144.28003016 85.43437464 147.23362989 87.125 150.1875 C87.45755798 150.76850464 87.79011597 151.34950928 88.13275146 151.94812012 C92.84669898 160.18785151 97.50367995 168.45796842 102.125 176.75 C107.22214598 185.89445571 112.44998746 194.95359092 117.75048828 203.98144531 C122.52923087 212.14118496 127.15176686 220.38208107 131.75 228.64453125 C135.74964599 235.81353957 139.84358252 242.92086585 144 250 C149.41450699 259.224351 154.68630694 268.52014472 159.89501953 277.86206055 C163.52159227 284.36503805 167.17548307 290.85073566 170.875 297.3125 C171.34558838 298.13459961 171.81617676 298.95669922 172.30102539 299.80371094 C174.19431205 303.10870013 176.08929489 306.41271465 177.98480225 309.71643066 C180.15200039 313.49385512 182.31768777 317.27213944 184.48175049 321.05136108 C185.5391284 322.89671156 186.59839494 324.74096893 187.65771484 326.58520508 C188.30820801 327.72111084 188.95870117 328.8570166 189.62890625 330.02734375 C190.20713135 331.03531006 190.78535645 332.04327637 191.38110352 333.08178711 C193.00863221 336.01556037 194.52186335 338.98858698 196 342 C191.48784769 341.42384585 187.87942823 340.23923853 183.7578125 338.33203125 C183.16458694 338.06048218 182.57136139 337.78893311 181.9601593 337.50915527 C180.68003276 336.92245776 179.40134982 336.33260205 178.12399292 335.73989868 C174.68699481 334.14536201 171.23942823 332.57395482 167.79296875 331 C166.72046623 330.50914665 166.72046623 330.50914665 165.626297 330.00837708 C156.91947973 326.03266503 148.14129216 322.22072076 139.36065674 318.41152954 C138.0299945 317.83422247 136.69957772 317.25634926 135.36943054 316.67785645 C133.62251167 315.91825103 131.87464665 315.16082257 130.12670898 314.40356445 C129.09489502 313.94038818 128.06308105 313.47721191 127 313 C125.95972656 312.61392578 124.91945313 312.22785156 123.84765625 311.83007812 C119.80270422 309.23054448 118.7252441 306.21431945 116.94140625 301.85546875 C116.56931534 300.98826706 116.19722443 300.12106537 115.81385803 299.22758484 C114.51371342 296.16293832 113.25325714 293.08411323 112 290 C111.51907898 288.82085022 111.03815796 287.64170044 110.54266357 286.42681885 C106.90913051 277.49394792 103.35901955 268.52851194 99.82272339 259.55679703 C98.62227075 256.51330279 97.41839347 253.47116795 96.21453667 250.42901897 C87.40875473 228.17597935 78.65534403 205.90258977 70.00408936 183.58898926 C68.92682077 180.81131137 67.84852649 178.03403323 66.77001953 175.25683594 C56.63959575 149.17001275 46.53942967 123.07150328 36.46134949 96.9644165 C33.9349191 90.42010283 31.40652891 83.87654856 28.87742615 77.33326721 C10.72194048 30.36078544 10.72194048 30.36078544 4.82391357 14.89401245 C4.14845584 13.12396635 3.47003285 11.35505269 2.79150391 9.58618164 C2.40913574 8.57934326 2.02676758 7.57250488 1.6328125 6.53515625 C1.31199707 5.693479 0.99118164 4.85180176 0.66064453 3.98461914 C0 2 0 2 0 0 Z " fill="#BF1D6F" transform="translate(293,74)"/>
<path d="M0 0 C1.53174098 0.2079833 3.06353689 0.41556233 4.59538269 0.62277222 C8.78531091 1.19125647 12.97419731 1.76709751 17.16286087 2.34481812 C19.84893886 2.71488138 22.53525456 3.0831704 25.22164917 3.45092773 C100.2843723 13.72974623 175.2447466 24.70048926 250.17993164 35.86523438 C250.85806738 35.96626481 251.53620312 36.06729524 252.23488843 36.1713872 C259.27208419 37.2198506 266.30916267 38.26909401 273.34599304 39.32000732 C284.20791606 40.94125882 295.06949683 42.56002153 305.9453125 44.0859375 C305.9453125 44.7459375 305.9453125 45.4059375 305.9453125 46.0859375 C256.42305995 46.13167117 206.90080952 46.16693442 157.37854002 46.18806816 C151.53784175 46.1905697 145.69714352 46.19315834 139.85644531 46.19580078 C138.69362079 46.1963254 137.53079626 46.19685002 136.33273463 46.19739054 C117.48092143 46.20610363 98.62912037 46.22187856 79.77731438 46.24024309 C60.44731336 46.25891703 41.11731872 46.2700489 21.78730905 46.27411449 C9.85053072 46.27686477 -2.08621329 46.28556495 -14.02298106 46.30177043 C-22.1979024 46.31230641 -30.37280589 46.31554585 -38.54773353 46.31294025 C-43.27092636 46.31165366 -47.99405904 46.31368663 -52.71724129 46.32434845 C-57.03503154 46.33402451 -61.35272075 46.3346095 -65.67051549 46.32773529 C-67.23851043 46.3268847 -68.80651147 46.32946945 -70.37449424 46.33570386 C-72.49426732 46.34364702 -74.61366819 46.33945521 -76.73343468 46.33203316 C-78.50483002 46.33317232 -78.50483002 46.33317232 -80.31201112 46.33433449 C-83.0546875 46.0859375 -83.0546875 46.0859375 -85.0546875 44.0859375 C-83.12518321 42.6641975 -81.19566904 41.24247093 -79.26611328 39.82080078 C-77.55729141 38.56158188 -75.84863745 37.30213507 -74.14013672 36.04248047 C-69.86413953 32.89030806 -65.58626216 29.74083234 -61.30078125 26.6015625 C-51.72804019 19.58175429 -42.24023036 12.46076466 -32.81884766 5.23876953 C-31.9788623 4.59536621 -31.13887695 3.95196289 -30.2734375 3.2890625 C-29.53029297 2.71833008 -28.78714844 2.14759766 -28.02148438 1.55957031 C-19.80214309 -4.598814 -9.62362734 -1.33098044 0 0 Z " fill="#68CBEB" transform="translate(96.0546875,388.9140625)"/>
<path d="M0 0 C0.66 0 1.32 0 2 0 C2.65525919 9.1188481 3.30744084 18.23790967 3.95575714 27.35725403 C4.25693138 31.59228202 4.55914217 35.8272306 4.86376953 40.06201172 C5.15802752 44.15318667 5.44950036 48.24455161 5.73908997 52.33605957 C5.84973669 53.89252723 5.96136582 55.4489254 6.07402039 57.00524902 C6.23233267 59.19472643 6.38706492 61.38443091 6.54101562 63.57421875 C6.62984009 64.81776123 6.71866455 66.06130371 6.81018066 67.3425293 C7.43693235 79.41888553 7.43693235 79.41888553 4.8671875 82.83203125 C4.39772705 83.47567627 3.9282666 84.11932129 3.44458008 84.7824707 C2.92661865 85.45238037 2.40865723 86.12229004 1.875 86.8125 C1.34092529 87.5346167 0.80685059 88.2567334 0.2565918 89.00073242 C-0.88728568 90.54413262 -2.03932135 92.08151418 -3.19873047 93.61328125 C-5.02126883 96.02818163 -6.8132061 98.46309721 -8.59765625 100.90625 C-14.99383583 109.65745374 -21.48045369 118.34044993 -28 127 C-28.65484375 127.8765625 -29.3096875 128.753125 -29.984375 129.65625 C-35.5818588 137.1476193 -41.25132525 144.58288058 -46.92407227 152.01733398 C-51.4543306 157.95897654 -55.95345581 163.92246226 -60.42553711 169.90795898 C-64.53846184 175.40449116 -68.70538891 180.85890241 -72.875 186.3125 C-78.02824209 193.05450557 -83.11422815 199.83899697 -88.125 206.6875 C-93.33064853 213.79978677 -98.67489525 220.78900944 -104.10644531 227.72998047 C-107.96141678 232.6567426 -111.74745664 237.62737234 -115.484375 242.64453125 C-118.8295131 247.12292593 -122.2325833 251.55739651 -125.625 256 C-130.9958502 263.03493329 -136.32875432 270.09625758 -141.625 277.1875 C-146.9813949 284.35556509 -152.42889557 291.44478168 -157.94189453 298.49291992 C-162.17889218 303.91831451 -166.32307 309.40647533 -170.43530273 314.92675781 C-176.50030017 323.04597934 -182.75330051 331.02027326 -189 339 C-190 336 -190 336 -189.23413086 334.12841797 C-188.81526611 333.42346191 -188.39640137 332.71850586 -187.96484375 331.9921875 C-187.25642334 330.77921997 -187.25642334 330.77921997 -186.53369141 329.54174805 C-186.00694824 328.66172119 -185.48020508 327.78169434 -184.9375 326.875 C-183.81769386 324.96301005 -182.69926 323.05021589 -181.58203125 321.13671875 C-180.99244629 320.1317334 -180.40286133 319.12674805 -179.79541016 318.09130859 C-176.8357803 312.99546507 -173.98609695 307.83908753 -171.125 302.6875 C-166.47143412 294.33733858 -161.71953335 286.05322174 -156.875 277.8125 C-151.91030037 269.36130378 -147.12470975 260.83352121 -142.46386719 252.21142578 C-138.39751567 244.6963453 -134.21521318 237.25185674 -129.99804688 229.82055664 C-125.9503908 222.68722458 -121.937242 215.53529657 -117.9375 208.375 C-113.18463731 199.87169894 -108.38276037 191.39866723 -103.53662109 182.94824219 C-99.06642227 175.14200797 -94.67212372 167.29417443 -90.28344727 159.44189453 C-84.75340255 149.54970675 -79.17893447 139.68303962 -73.59570312 129.82080078 C-72.0148419 127.02623673 -70.43665857 124.23017841 -68.859375 121.43359375 C-63.65137012 112.20264863 -58.4231292 102.98411976 -53.15283203 93.78857422 C-46.49565354 82.17275164 -39.92361237 70.51585616 -33.43847656 58.80273438 C-27.89895078 48.80056896 -22.28093385 38.844302 -16.64111328 28.8984375 C-14.88038044 25.78873498 -13.12520484 22.67594218 -11.37109375 19.5625 C-10.77570801 18.50643555 -10.18032227 17.45037109 -9.56689453 16.36230469 C-8.42251534 14.33217028 -7.2789233 12.30159189 -6.13623047 10.27050781 C-5.36690186 8.90684082 -5.36690186 8.90684082 -4.58203125 7.515625 C-4.13061768 6.71415039 -3.6792041 5.91267578 -3.21411133 5.08691406 C-2.20549166 3.35321591 -1.11258852 1.66888277 0 0 Z " fill="#FCC629" transform="translate(237,12)"/>
<path d="M0 0 C12.55220152 0.59009368 24.90662304 2.66859388 37.3125 4.5625 C39.51751347 4.89561054 41.72259115 5.22829636 43.92773438 5.56054688 C49.28590655 6.36880128 54.64326153 7.18230052 60 8 C60 8.66 60 9.32 60 10 C-53.19 10 -166.38 10 -283 10 C-283 9.67 -283 9.34 -283 9 C-276.32470007 7.98975811 -269.81093123 7.86190489 -263.06640625 7.87974548 C-261.2859332 7.87846385 -261.2859332 7.87846385 -259.469491 7.87715632 C-256.1924961 7.87579866 -252.91554118 7.87890618 -249.638551 7.88393438 C-246.0980996 7.88826643 -242.55764996 7.8867905 -239.01719666 7.8860321 C-232.8889726 7.88550861 -226.76075921 7.88863715 -220.63253784 7.89426994 C-211.77223825 7.90240863 -202.9119438 7.90500259 -194.05164087 7.90625793 C-179.67521208 7.90844473 -165.29878898 7.91509472 -150.92236328 7.92456055 C-136.95979847 7.93374429 -122.9972352 7.94082042 -109.03466797 7.94506836 C-108.17352803 7.94533108 -107.3123881 7.94559381 -106.42515302 7.94586449 C-102.10492151 7.94716956 -97.78468999 7.94843326 -93.46445847 7.94967639 C-57.6429683 7.96003741 -21.82148459 7.9776456 14 8 C13.34 6.35 12.68 4.7 12 3 C6.06 2.505 6.06 2.505 0 2 C0 1.34 0 0.68 0 0 Z " fill="#75C3DD" transform="translate(342,425)"/>
<path d="M0 0 C3.16876893 2.91432023 5.19702835 5.78370459 7.25 9.55859375 C8.15335083 11.20480713 8.15335083 11.20480713 9.07495117 12.88427734 C9.38870697 13.4634491 9.70246277 14.04262085 10.02572632 14.63934326 C11.35093949 17.08520734 12.69131148 19.52264298 14.03105164 21.96057129 C14.71172412 23.19934652 15.39166434 24.43852439 16.07087708 25.67810059 C19.05045879 31.11154855 22.10219599 36.50106673 25.1875 41.875 C25.66155273 42.70290039 26.13560547 43.53080078 26.62402344 44.38378906 C29.20881033 48.89352957 31.80682945 53.39547113 34.41015625 57.89453125 C34.96872314 58.86342285 35.52729004 59.83231445 36.1027832 60.83056641 C37.17964117 62.69826938 38.26006255 64.56392351 39.34448242 66.42724609 C40.06341675 67.67562256 40.06341675 67.67562256 40.796875 68.94921875 C41.43641113 70.05269653 41.43641113 70.05269653 42.08886719 71.1784668 C43 73 43 73 43 75 C40.25 75.25 40.25 75.25 37 75 C34.625 73 34.625 73 33 71 C32.896875 71.78375 32.79375 72.5675 32.6875 73.375 C32 76 32 76 29 78 C23.75764678 64.32771491 18.52008086 50.65360459 13.28759766 36.97753906 C11.88223955 33.3045451 10.47588421 29.63193791 9.06787109 25.95996094 C7.4998742 21.87054999 5.93692816 17.77923267 4.375 13.6875 C3.92084717 12.50518799 3.46669434 11.32287598 2.9987793 10.10473633 C2.39223511 8.51181763 2.39223511 8.51181763 1.7734375 6.88671875 C1.42716309 5.98139404 1.08088867 5.07606934 0.72412109 4.14331055 C0 2 0 2 0 0 Z " fill="#BE1E6E" transform="translate(293,74)"/>
<path d="M0 0 C0 3 0 3 -1 5 C-0.34 5 0.32 5 1 5 C1 5.99 1 6.98 1 8 C1.66 8 2.32 8 3 8 C3 8.99 3 9.98 3 11 C3.66 11.33 4.32 11.66 5 12 C-7.94955851 24.02177002 -7.94955851 24.02177002 -14.0390625 29.2890625 C-16.4049591 31.35333085 -18.73320335 33.45703966 -21.0625 35.5625 C-24.98932963 39.10696445 -28.96518552 42.57917903 -33 46 C-33.66 45.67 -34.32 45.34 -35 45 C-28.60452207 36.3706406 -22.13235334 27.82706528 -15.38647461 19.46801758 C-11.52855279 14.68245919 -7.7597314 9.83459861 -4.03271484 4.9465332 C-1.08907669 1.08907669 -1.08907669 1.08907669 0 0 Z " fill="#F2A228" transform="translate(59,365)"/>
<path d="M0 0 C3.29371378 3.00699027 5.33444177 6.0360032 7.4609375 9.9453125 C7.77398834 10.51522919 8.08703918 11.08514587 8.40957642 11.67233276 C9.40459248 13.48640239 10.39020945 15.30536246 11.375 17.125 C12.67148406 19.50424781 13.97209077 21.88122175 15.2734375 24.2578125 C15.89702148 25.39895508 16.52060547 26.54009766 17.16308594 27.71582031 C19.32387041 31.57904103 21.6072242 35.35337006 23.95556641 39.10498047 C25 41 25 41 25 43 C23.02 43.495 23.02 43.495 21 44 C21 45.32 21 46.64 21 48 C21 50 21 52 21 54 C18.76136762 51.76136762 18.14582871 50.15844083 17.02880859 47.21484375 C16.64856537 46.2204126 16.26832214 45.22598145 15.8765564 44.20141602 C15.47127716 43.12432373 15.06599792 42.04723145 14.6484375 40.9375 C14.22954254 39.835271 13.81064758 38.73304199 13.37905884 37.59741211 C12.49393266 35.26481516 11.6114666 32.93120735 10.73144531 30.59667969 C9.3796844 27.0124209 8.0186463 23.43179034 6.65625 19.8515625 C5.79892608 17.58875114 4.94213706 15.32573703 4.0859375 13.0625 C3.6766098 11.98540771 3.2672821 10.90831543 2.84555054 9.79858398 C2.47161163 8.80415283 2.09767273 7.80972168 1.71240234 6.78515625 C1.38090179 5.90738525 1.04940125 5.02961426 0.70785522 4.12524414 C0 2 0 2 0 0 Z " fill="#B7246A" transform="translate(293,74)"/>
<path d="M0 0 C2 3 2 3 2 7 C0.35 7.33 -1.3 7.66 -3 8 C-3 9.32 -3 10.64 -3 12 C-3.66 12 -4.32 12 -5 12 C-4.34 12.66 -3.68 13.32 -3 14 C-1.68 13.34 -0.36 12.68 1 12 C1 11.34 1 10.68 1 10 C2.32 9.67 3.64 9.34 5 9 C1.08278385 15.33970508 -3.41473313 21.11341014 -8.09570312 26.89306641 C-14.22320933 34.47292034 -20.11090979 42.23437155 -26 50 C-27 47 -27 47 -26.23413086 45.12841797 C-25.81526611 44.42346191 -25.39640137 43.71850586 -24.96484375 42.9921875 C-24.49151611 42.18168945 -24.01818848 41.37119141 -23.53051758 40.53613281 C-23.00482178 39.65795898 -22.47912598 38.77978516 -21.9375 37.875 C-20.83455142 35.99299913 -19.73305368 34.11014743 -18.6328125 32.2265625 C-18.04532227 31.2252832 -17.45783203 30.22400391 -16.85253906 29.19238281 C-12.96083545 22.48601534 -9.22446552 15.69118541 -5.45874023 8.91357422 C-4.89098877 7.89537598 -4.3232373 6.87717773 -3.73828125 5.828125 C-3.23337158 4.9196582 -2.72846191 4.01119141 -2.20825195 3.07519531 C-1 1 -1 1 0 0 Z " fill="#F7C73B" transform="translate(74,301)"/>
<path d="M0 0 C0.66 0.33 1.32 0.66 2 1 C-5.034295 7.60932964 -12.09712494 14.05756687 -19.66015625 20.0625 C-21.91520126 21.92978268 -23.96646354 23.8960177 -26 26 C-26.66 25.67 -27.32 25.34 -28 25 C-26.10690634 22.45628256 -24.21002431 19.91541356 -22.3125 17.375 C-21.78205078 16.66214844 -21.25160156 15.94929688 -20.70507812 15.21484375 C-17.58202673 11.038002 -14.37816616 6.97357578 -11 3 C-10.34 3.66 -9.68 4.32 -9 5 C-7.6078125 4.0409375 -7.6078125 4.0409375 -6.1875 3.0625 C-3 1 -3 1 0 0 Z " fill="#EAA333" transform="translate(52,385)"/>
<path d="M0 0 C1 2 1 2 0.4375 4.9375 C-0.37098636 8.16588156 -0.37098636 8.16588156 2 11 C3.98 10.67 5.96 10.34 8 10 C6.35169863 13.6756239 4.10003592 16.722137 1.6875 19.9375 C0.54861328 21.46697266 0.54861328 21.46697266 -0.61328125 23.02734375 C-2.93702108 25.9215598 -5.32957168 28.43355296 -8 31 C-8.33 29.35 -8.66 27.7 -9 26 C-7.68 25.67 -6.36 25.34 -5 25 C-5 24.34 -5 23.68 -5 23 C-4.01 23 -3.02 23 -2 23 C-1.67 21.02 -1.34 19.04 -1 17 C-0.01 17 0.98 17 2 17 C0.68 16.34 -0.64 15.68 -2 15 C-1.67 14.01 -1.34 13.02 -1 12 C-1 11.01 -1 10.02 -1 9 C-1.99 9 -2.98 9 -4 9 C-4.12375 9.721875 -4.2475 10.44375 -4.375 11.1875 C-5.38873429 15.7493043 -6.86871031 19.4772991 -10 23 C-10.66 23 -11.32 23 -12 23 C-10.46688715 17.48431813 -7.81247556 12.97965148 -4.875 8.125 C-4.40707031 7.34125 -3.93914062 6.5575 -3.45703125 5.75 C-2.30981892 3.83017528 -1.1573993 1.91369439 0 0 Z " fill="#F7C53D" transform="translate(87,278)"/>
<path d="M0 0 C3.08438629 1.54219315 3.36781534 3.98808025 4.6015625 7.15234375 C4.8428891 7.76767471 5.0842157 8.38300568 5.33285522 9.01698303 C5.84206151 10.31952723 6.34788353 11.62339871 6.85058594 12.9284668 C7.62164552 14.92879761 8.40364083 16.92457685 9.1875 18.91992188 C13 28.70352093 13 28.70352093 13 31 C12.34 31 11.68 31 11 31 C11 29.68 11 28.36 11 27 C10.01 27.33 9.02 27.66 8 28 C8 30.97 8 33.94 8 37 C7.34 37 6.68 37 6 37 C5.1422201 32.21339047 4.28781096 27.42619619 3.43652344 22.63842773 C3.14643497 21.0096816 2.8554252 19.38109928 2.56347656 17.75268555 C2.1440603 15.41237131 1.727958 13.07148848 1.3125 10.73046875 C1.11563599 9.63813179 1.11563599 9.63813179 0.91479492 8.52372742 C0.40517874 5.63686371 0 2.93833134 0 0 Z " fill="#DD532B" transform="translate(254,32)"/>
<path d="M0 0 C8.47865494 2.42658054 16.79819607 5.29180056 25.125 8.1875 C26.47649715 8.6557876 27.82805923 9.12388786 29.1796875 9.59179688 C32.45387502 10.72570964 35.72718124 11.86214171 39 13 C38.67 13.66 38.34 14.32 38 15 C34.72851069 14.52524326 31.45793881 14.04443581 28.1875 13.5625 C26.7943457 13.36043945 26.7943457 13.36043945 25.37304688 13.15429688 C24.48037109 13.02216797 23.58769531 12.89003906 22.66796875 12.75390625 C21.84578857 12.63345947 21.0236084 12.5130127 20.17651367 12.38891602 C18 12 18 12 15 11 C15 10.01 15 9.02 15 8 C12.69 8.33 10.38 8.66 8 9 C8.33 7.68 8.66 6.36 9 5 C8.2575 4.87625 7.515 4.7525 6.75 4.625 C4.19858515 4.04513299 2.2732427 3.26291261 0 2 C0 1.34 0 0.68 0 0 Z " fill="#5B76B1" transform="translate(426,411)"/>
<path d="M0 0 C4.84482226 4.49372909 7.60947309 9.9105485 10.8125 15.625 C11.42287109 16.6871875 12.03324219 17.749375 12.66210938 18.84375 C13.23380859 19.85695313 13.80550781 20.87015625 14.39453125 21.9140625 C14.91893799 22.8417041 15.44334473 23.7693457 15.98364258 24.72509766 C16.31904053 25.47581543 16.65443848 26.2265332 17 27 C16.67 27.66 16.34 28.32 16 29 C15.34 28.67 14.68 28.34 14 28 C14 27.01 14 26.02 14 25 C13.34 25 12.68 25 12 25 C12.33 25.99 12.66 26.98 13 28 C12.01 28 11.02 28 10 28 C8.57157089 24.33547148 7.14752324 20.66927431 5.72753906 17.00146484 C5.00558153 15.13939585 4.28014762 13.27867593 3.5546875 11.41796875 C2.87792969 9.66806641 2.87792969 9.66806641 2.1875 7.8828125 C1.76855469 6.80402832 1.34960938 5.72524414 0.91796875 4.61376953 C0 2 0 2 0 0 Z " fill="#B22968" transform="translate(293,74)"/>
<path d="M0 0 C0 0.99 0 1.98 0 3 C-0.66 3 -1.32 3 -2 3 C-2.226875 3.5775 -2.45375 4.155 -2.6875 4.75 C-5.63208306 9.79785668 -10.64166299 12.21388766 -16 14 C-16.268125 14.61875 -16.53625 15.2375 -16.8125 15.875 C-18.50819125 18.90939487 -20.9179551 19.55734069 -24 21 C-24.33 21.66 -24.66 22.32 -25 23 C-25.66 23 -26.32 23 -27 23 C-27 23.66 -27 24.32 -27 25 C-25.68 24.67 -24.36 24.34 -23 24 C-22.01 25.32 -21.02 26.64 -20 28 C-21.62580966 27.88601335 -23.25067157 27.75844341 -24.875 27.625 C-25.77992187 27.55539062 -26.68484375 27.48578125 -27.6171875 27.4140625 C-30 27 -30 27 -32 25 C-23.47345784 17.70076315 -14.65903007 10.88437725 -5.63671875 4.21142578 C-3.75145641 2.81603918 -1.87409084 1.41034898 0 0 Z " fill="#5D75A6" transform="translate(125,346)"/>
<path d="M0 0 C8.55398554 1.77363736 16.77951429 4.41187895 25.05737305 7.16064453 C26.50051623 7.63396046 27.94387443 8.10662134 29.38745117 8.57861328 C32.88409861 9.72342914 36.37776811 10.87703554 39.86987305 12.03564453 C39.86987305 12.36564453 39.86987305 12.69564453 39.86987305 13.03564453 C37.22987305 13.03564453 34.58987305 13.03564453 31.86987305 13.03564453 C31.86987305 12.37564453 31.86987305 11.71564453 31.86987305 11.03564453 C30.57049805 11.09751953 30.57049805 11.09751953 29.24487305 11.16064453 C25.74628836 11.03106732 23.12435707 10.27544797 19.86987305 9.03564453 C19.86987305 8.37564453 19.86987305 7.71564453 19.86987305 7.03564453 C18.57049805 6.85001953 18.57049805 6.85001953 17.24487305 6.66064453 C13.86987305 6.03564453 13.86987305 6.03564453 10.86987305 4.97314453 C7.04428892 3.77764949 3.5430852 3.19903845 -0.13012695 5.03564453 C-2.75512695 4.09814453 -2.75512695 4.09814453 -5.13012695 3.03564453 C-3.46393328 0.92385267 -2.75780961 0.04614787 0 0 Z " fill="#5A73A7" transform="translate(161.130126953125,319.96435546875)"/>
<path d="M0 0 C2.49552403 2.27597646 4.06622986 4.60721178 5.6875 7.5625 C6.12449219 8.34753906 6.56148438 9.13257813 7.01171875 9.94140625 C8 12 8 12 8 14 C5 13 5 13 3 11 C2.34 12.32 1.68 13.64 1 15 C0.34 15 -0.32 15 -1 15 C-1 16.65 -1 18.3 -1 20 C-3.03819846 17.96180154 -3.67841059 16.70582202 -4.6875 14.0625 C-5.09548828 13.02802734 -5.09548828 13.02802734 -5.51171875 11.97265625 C-6 10 -6 10 -5 7 C-4.34 7 -3.68 7 -3 7 C-2.67 8.32 -2.34 9.64 -2 11 C-0.27219734 10.02977977 -0.27219734 10.02977977 1 8 C0.96726452 5.23385218 0.49404328 2.73969453 0 0 Z " fill="#B42569" transform="translate(320,121)"/>
<path d="M0 0 C0 3 0 3 -1.9375 5.875 C-3.8982614 8.84585061 -4.4155378 10.59063715 -5 14 C-5.99 14.495 -5.99 14.495 -7 15 C-7.433125 16.2065625 -7.433125 16.2065625 -7.875 17.4375 C-9 20 -9 20 -10.9375 21.3125 C-13 22 -13 22 -16 22 C-14.29905127 18.09164029 -11.73558567 14.89232866 -9.125 11.5625 C-8.69058594 11.00240234 -8.25617188 10.44230469 -7.80859375 9.86523438 C-5.23483552 6.55335629 -2.62767922 3.26932182 0 0 Z " fill="#F1A62D" transform="translate(194,191)"/>
<path d="M0 0 C1 3.875 1 3.875 1 5 C4.3 5.33 7.6 5.66 11 6 C11 6.66 11 7.32 11 8 C-1.09324105 6.78495805 -13.03258044 5.1218829 -25 3 C-25 2.67 -25 2.34 -25 2 C-21 2 -17 2 -13 2 C-12.67 2.33 -12.34 2.66 -12 3 C-10.14712498 3.07226502 -8.29166122 3.0838122 -6.4375 3.0625 C-5.42558594 3.05347656 -4.41367187 3.04445313 -3.37109375 3.03515625 C-2.58863281 3.02355469 -1.80617188 3.01195312 -1 3 C-0.67 2.01 -0.34 1.02 0 0 Z " fill="#5B76AB" transform="translate(283,393)"/>
<path d="M0 0 C0.9837291 3.46126905 0.73757891 5.4760119 0 9 C-0.03824623 11.33301986 -0.04574284 13.66711508 0 16 C-1.98 16.99 -1.98 16.99 -4 18 C-4 16.68 -4 15.36 -4 14 C-4.99 14 -5.98 14 -7 14 C-5.23570801 9.02790438 -2.6060834 4.56561939 0 0 Z " fill="#FBC731" transform="translate(168,134)"/>
<path d="M0 0 C1.12451172 3.75976562 1.12451172 3.75976562 0.00390625 5.921875 C-0.47175781 6.52515625 -0.94742188 7.1284375 -1.4375 7.75 C-1.91058594 8.36359375 -2.38367188 8.9771875 -2.87109375 9.609375 C-3.24363281 10.06828125 -3.61617188 10.5271875 -4 11 C-3.34 11 -2.68 11 -2 11 C-1.67 11.99 -1.34 12.98 -1 14 C-1.556875 14.226875 -2.11375 14.45375 -2.6875 14.6875 C-5.63246684 16.35896766 -7.68156544 18.55276352 -10 21 C-10.33 20.34 -10.66 19.68 -11 19 C-10.10375977 17.02880859 -10.10375977 17.02880859 -8.69140625 14.6484375 C-8.19189453 13.79765625 -7.69238281 12.946875 -7.17773438 12.0703125 C-6.64470703 11.18085938 -6.11167969 10.29140625 -5.5625 9.375 C-5.03333984 8.4778125 -4.50417969 7.580625 -3.95898438 6.65625 C-2.646418 4.43316461 -1.32652747 2.21477355 0 0 Z " fill="#F6C63E" transform="translate(104,248)"/>
<path d="M0 0 C1.18826921 3.56480762 0.76813843 4.19969907 -0.75 7.5 C-1.09546875 8.2734375 -1.4409375 9.046875 -1.796875 9.84375 C-3 12 -3 12 -4.62890625 13.55078125 C-6.40603638 15.11494416 -6.40603638 15.11494416 -6.1875 18.6875 C-6.125625 19.780625 -6.06375 20.87375 -6 22 C-6.99 22.33 -7.98 22.66 -9 23 C-9.66 22.67 -10.32 22.34 -11 22 C-11.33 22.99 -11.66 23.98 -12 25 C-12.33 24.34 -12.66 23.68 -13 23 C-11.92016602 20.66162109 -11.92016602 20.66162109 -10.25390625 17.7734375 C-9.66416016 16.7421875 -9.07441406 15.7109375 -8.46679688 14.6484375 C-7.83837891 13.56820312 -7.20996094 12.48796875 -6.5625 11.375 C-5.93794922 10.28703125 -5.31339844 9.1990625 -4.66992188 8.078125 C-3.12038301 5.38121767 -1.5634896 2.68883594 0 0 Z " fill="#F4C947" transform="translate(128,205)"/>
<path d="M0 0 C3.1398451 1.56992255 3.42143346 4.22447002 4.625 7.4375 C5.07101562 8.61183594 5.51703125 9.78617188 5.9765625 10.99609375 C7 14 7 14 7 16 C6.01 16 5.02 16 4 16 C4.33 16.66 4.66 17.32 5 18 C5.13415472 20.6723621 5.04318541 23.32250488 5 26 C4.67 26 4.34 26 4 26 C3.32920305 22.22988923 2.66407197 18.45880064 2 14.6875 C1.80921875 13.61564453 1.6184375 12.54378906 1.421875 11.43945312 C1.15117187 9.89741211 1.15117187 9.89741211 0.875 8.32421875 C0.70742187 7.37635498 0.53984375 6.42849121 0.3671875 5.4519043 C0 3 0 3 0 0 Z " fill="#D5562D" transform="translate(254,32)"/>
<path d="M0 0 C2.52689194 3.21887158 4.61942974 6.59584027 6.6875 10.125 C7.31011719 11.17945313 7.93273437 12.23390625 8.57421875 13.3203125 C10 16 10 16 10 18 C9.34 18 8.68 18 8 18 C8 17.01 8 16.02 8 15 C6.35 15.33 4.7 15.66 3 16 C3 14.68 3 13.36 3 12 C1.16343011 9.03268602 1.16343011 9.03268602 -1 7 C-0.34 7 0.32 7 1 7 C0.67 4.69 0.34 2.38 0 0 Z " fill="#B12669" transform="translate(369,206)"/>
<path d="M0 0 C0.33 0.66 0.66 1.32 1 2 C1.66 2 2.32 2 3 2 C1.44997253 5.88397689 -1.00476621 8.02979619 -4.125 10.75 C-5.49011719 11.94882812 -5.49011719 11.94882812 -6.8828125 13.171875 C-7.58148437 13.77515625 -8.28015625 14.3784375 -9 15 C-9.66 14.67 -10.32 14.34 -11 14 C-9.35504034 11.85349184 -7.70907674 9.70776711 -6.0625 7.5625 C-5.59392578 6.95083984 -5.12535156 6.33917969 -4.64257812 5.70898438 C-1.11328125 1.11328125 -1.11328125 1.11328125 0 0 Z " fill="#EAA535" transform="translate(35,396)"/>
<path d="M0 0 C1.32 0.66 2.64 1.32 4 2 C2.515 4.475 2.515 4.475 1 7 C2.98 6.34 4.96 5.68 7 5 C7.99 6.65 8.98 8.3 10 10 C8 11 8 11 4.9609375 10.00390625 C3.77757812 9.52824219 2.59421875 9.05257813 1.375 8.5625 C0.18648438 8.08941406 -1.00203125 7.61632812 -2.2265625 7.12890625 C-3.14179688 6.75636719 -4.05703125 6.38382812 -5 6 C-4.34 5.67 -3.68 5.34 -3 5 C-2.67 4.01 -2.34 3.02 -2 2 C-1.34 1.34 -0.68 0.68 0 0 Z " fill="#E85028" transform="translate(332,342)"/>
<path d="M0 0 C1.2077558 3.62326739 0.54311128 4.64146369 -1 8 C-1.66 8 -2.32 8 -3 8 C-2.67 8.66 -2.34 9.32 -2 10 C-1.34 9.67 -0.68 9.34 0 9 C-0.33 9.99 -0.66 10.98 -1 12 C-2.32 12 -3.64 12 -5 12 C-5 14.64 -5 17.28 -5 20 C-6.32 20 -7.64 20 -9 20 C-9.33 19.34 -9.66 18.68 -10 18 C-9.19555664 16.12060547 -9.19555664 16.12060547 -7.91015625 13.8671875 C-7.45576172 13.06152344 -7.00136719 12.25585938 -6.53320312 11.42578125 C-6.04787109 10.58402344 -5.56253906 9.74226563 -5.0625 8.875 C-4.58103516 8.02550781 -4.09957031 7.17601562 -3.60351562 6.30078125 C-2.40942817 4.19634989 -1.20803163 2.09644809 0 0 Z " fill="#F8C638" transform="translate(221,40)"/>
<path d="M0 0 C0.33 0.66 0.66 1.32 1 2 C1.66 2 2.32 2 3 2 C3 4.31 3 6.62 3 9 C-0.375 9.625 -0.375 9.625 -4 10 C-4.66 9.34 -5.32 8.68 -6 8 C-5.34 8 -4.68 8 -4 8 C-3.8453125 7.13375 -3.8453125 7.13375 -3.6875 6.25 C-2.90207202 3.67950842 -1.69495803 2.06342716 0 0 Z " fill="#F7A11C" transform="translate(55,372)"/>
<path d="M0 0 C0.33 0.99 0.66 1.98 1 3 C1.66 3.33 2.32 3.66 3 4 C-0.63 8.62 -4.26 13.24 -8 18 C-9 15 -9 15 -8.28735352 13.2824707 C-7.90506592 12.66976318 -7.52277832 12.05705566 -7.12890625 11.42578125 C-6.71962891 10.75869141 -6.31035156 10.09160156 -5.88867188 9.40429688 C-5.45103516 8.71400391 -5.01339844 8.02371094 -4.5625 7.3125 C-4.12873047 6.61060547 -3.69496094 5.90871094 -3.24804688 5.18554688 C-2.17449413 3.45134628 -1.08841346 1.72491256 0 0 Z " fill="#F4CA55" transform="translate(56,333)"/>
<path d="M0 0 C3.45321249 3.22635458 5.45774742 6.97332387 7.75 11.0625 C8.17410156 11.79533203 8.59820312 12.52816406 9.03515625 13.28320312 C9.43089844 13.98509766 9.82664062 14.68699219 10.234375 15.41015625 C10.59756836 16.05090088 10.96076172 16.69164551 11.33496094 17.35180664 C11.66415527 18.16766235 11.66415527 18.16766235 12 19 C11.67 19.66 11.34 20.32 11 21 C10.34 20.67 9.68 20.34 9 20 C9 18.68 9 17.36 9 16 C8.34 16 7.68 16 7 16 C7 15.01 7 14.02 7 13 C5.35 12.67 3.7 12.34 2 12 C2.33 10.35 2.66 8.7 3 7 C2.34 6.67 1.68 6.34 1 6 C1.33 5.34 1.66 4.68 2 4 C1.34 4 0.68 4 0 4 C0 2.68 0 1.36 0 0 Z " fill="#AD2669" transform="translate(470,384)"/>
<path d="M0 0 C0.33 0.33 0.66 0.66 1 1 C2.83607518 1.34454513 4.68231618 1.63527234 6.53125 1.90234375 C7.65144531 2.07056641 8.77164063 2.23878906 9.92578125 2.41210938 C12.30803477 2.76228762 14.69085315 3.10864447 17.07421875 3.45117188 C18.75451172 3.70543945 18.75451172 3.70543945 20.46875 3.96484375 C21.50451172 4.1155835 22.54027344 4.26632324 23.60742188 4.42163086 C24.39697266 4.61249268 25.18652344 4.80335449 26 5 C26.495 5.99 26.495 5.99 27 7 C14.79 5.35 2.58 3.7 -10 2 C-10 1.67 -10 1.34 -10 1 C-3.375 -1.125 -3.375 -1.125 0 0 Z " fill="#5F73A4" transform="translate(230,389)"/>
<path d="M0 0 C0.59329102 0.20810303 1.18658203 0.41620605 1.79785156 0.63061523 C0.80785156 0.63061523 -0.18214844 0.63061523 -1.20214844 0.63061523 C-1.42902344 1.20811523 -1.65589844 1.78561523 -1.88964844 2.38061523 C-3.55063066 5.22801333 -5.51739405 6.75128716 -8.20214844 8.63061523 C-8.86214844 8.63061523 -9.52214844 8.63061523 -10.20214844 8.63061523 C-10.53214844 9.62061523 -10.86214844 10.61061523 -11.20214844 11.63061523 C-12.52214844 10.97061523 -13.84214844 10.31061523 -15.20214844 9.63061523 C-13.13030546 7.92703337 -11.04672521 6.24332813 -8.95214844 4.56811523 C-8.365625 4.0827832 -7.77910156 3.59745117 -7.17480469 3.09741211 C-2.69410649 -0.451905 -2.69410649 -0.451905 0 0 Z " fill="#7AC9DB" transform="translate(75.2021484375,387.369384765625)"/>
<path d="M0 0 C4.17906895 3.55994763 6.68559431 8.08663054 9 13 C9 13.66 9 14.32 9 15 C8.34 15 7.68 15 7 15 C7.33 16.65 7.66 18.3 8 20 C5.16443197 17.16443197 4.22554971 13.69624132 2.875 10 C2.59785156 9.26265625 2.32070313 8.5253125 2.03515625 7.765625 C0 2.27170567 0 2.27170567 0 0 Z " fill="#A53066" transform="translate(293,74)"/>
<path d="M0 0 C1.77111844 0.47811177 3.54188483 0.9575278 5.3125 1.4375 C6.29863281 1.70433594 7.28476562 1.97117187 8.30078125 2.24609375 C10.21517526 2.78079425 12.11433615 3.37144538 14 4 C13.67 4.66 13.34 5.32 13 6 C6.4 5.01 -0.2 4.02 -7 3 C-7 2.67 -7 2.34 -7 2 C-4.69 2 -2.38 2 0 2 C0 1.34 0 0.68 0 0 Z " fill="#4F6694" transform="translate(451,420)"/>
<path d="M0 0 C1.65 0 3.3 0 5 0 C4.39196574 3.12308506 3.37985958 5.19251662 1.5 7.75 C0.83484375 8.67039063 0.83484375 8.67039063 0.15625 9.609375 C-0.2253125 10.06828125 -0.606875 10.5271875 -1 11 C-1.33 11 -1.66 11 -2 11 C-2.28571429 3.57142857 -2.28571429 3.57142857 0 0 Z " fill="#FAC532" transform="translate(121,246)"/>
<path d="M0 0 C0.99 0.33 1.98 0.66 3 1 C1.32076975 4.80133442 -1.11462834 7.97082702 -3.625 11.25 C-4.04523438 11.80429688 -4.46546875 12.35859375 -4.8984375 12.9296875 C-5.92938719 14.28866663 -6.96429911 15.64463835 -8 17 C-8 14.33333333 -8 11.66666667 -8 9 C-6.02 9.495 -6.02 9.495 -4 10 C-4 8.68 -4 7.36 -4 6 C-3.01 6 -2.02 6 -1 6 C-0.67 4.02 -0.34 2.04 0 0 Z " fill="#F3C643" transform="translate(192,155)"/>
<path d="M0 0 C0.33 1.32 0.66 2.64 1 4 C0.34 4 -0.32 4 -1 4 C-0.67 5.32 -0.34 6.64 0 8 C-0.639375 8.226875 -1.27875 8.45375 -1.9375 8.6875 C-4.25262441 9.83047912 -4.25262441 9.83047912 -4.625 12.4375 C-4.810625 13.7059375 -4.810625 13.7059375 -5 15 C-5.99 16.485 -5.99 16.485 -7 18 C-7.66 18 -8.32 18 -9 18 C-7.65072455 13.46152802 -5.80840652 9.68067754 -3.375 5.625 C-2.74335938 4.56539063 -2.11171875 3.50578125 -1.4609375 2.4140625 C-0.73777344 1.21910156 -0.73777344 1.21910156 0 0 Z " fill="#F4C840" transform="translate(198,81)"/>
<path d="M0 0 C-0.33 2.31 -0.66 4.62 -1 7 C-3.875 7.125 -3.875 7.125 -7 7 C-7.66 6.34 -8.32 5.68 -9 5 C-7.87926138 4.16094435 -6.75325453 3.32892169 -5.625 2.5 C-4.99851562 2.0359375 -4.37203125 1.571875 -3.7265625 1.09375 C-2 0 -2 0 0 0 Z " fill="#72C6E3" transform="translate(20,428)"/>
<path d="M0 0 C0.66 0.33 1.32 0.66 2 1 C0.44499019 4.81684226 -2.03595495 7.19195732 -5 10 C-5 9.01 -5 8.02 -5 7 C-5.66 7 -6.32 7 -7 7 C-7 6.01 -7 5.02 -7 4 C-6.030625 3.71125 -5.06125 3.4225 -4.0625 3.125 C-0.89335797 2.35785318 -0.89335797 2.35785318 0 0 Z " fill="#F7C536" transform="translate(109,266)"/>
<path d="M0 0 C2.67927341 4.01891012 2.15601248 6.24161923 2 11 C1.34 11 0.68 11 0 11 C0 8.69 0 6.38 0 4 C-0.66 4 -1.32 4 -2 4 C-2 5.65 -2 7.3 -2 9 C-3.32 9 -4.64 9 -6 9 C-4.47291037 5.56404834 -2.40072955 2.88087546 0 0 Z " fill="#E5A240" transform="translate(247,123)"/>
<path d="M0 0 C0.66 0.99 1.32 1.98 2 3 C0.91768522 5.52540116 -0.06855624 7.06647878 -2.0625 9 C-4.13808642 11.14254082 -4.32638241 12.20929856 -5 15 C-5.99 15.33 -6.98 15.66 -8 16 C-6.42986223 10.03347646 -3.24970218 5.17090975 0 0 Z " fill="#F5C83C" transform="translate(114,230)"/>
<path d="M0 0 C0.33 0.66 0.66 1.32 1 2 C0.38125 2.721875 -0.2375 3.44375 -0.875 4.1875 C-2.85594716 6.80934183 -3.87662032 8.95082659 -5 12 C-7 15 -7 15 -9.625 15.6875 C-10.40875 15.790625 -11.1925 15.89375 -12 16 C-8 10.66666667 -4 5.33333333 0 0 Z " fill="#EBA038" transform="translate(221,156)"/>
<path d="M0 0 C1.79378179 2.69067269 2.97313958 5.08578257 4.1875 8.0625 C4.55230469 8.94035156 4.91710937 9.81820312 5.29296875 10.72265625 C6 13 6 13 5 15 C4.01 14.34 3.02 13.68 2 13 C2 12.01 2 11.02 2 10 C1.34 9.67 0.68 9.34 0 9 C0 8.01 0 7.02 0 6 C-0.66 5.01 -1.32 4.02 -2 3 C-1.34 3 -0.68 3 0 3 C0 2.01 0 1.02 0 0 Z " fill="#DE502C" transform="translate(314,182)"/>
<path d="M0 0 C0.33 1.98 0.66 3.96 1 6 C-1.97 5.01 -4.94 4.02 -8 3 C-7.34 2.67 -6.68 2.34 -6 2 C-6 1.34 -6 0.68 -6 0 C-3 -1 -3 -1 0 0 Z " fill="#B4246C" transform="translate(453,395)"/>
<path d="M0 0 C0.66 0.33 1.32 0.66 2 1 C2 2.65 2 4.3 2 6 C0.02 6.99 0.02 6.99 -2 8 C-2.99 7.01 -3.98 6.02 -5 5 C-3.35 3.35 -1.7 1.7 0 0 Z " fill="#F4A528" transform="translate(40,391)"/>
<path d="M0 0 C1.79378179 2.69067269 2.97313958 5.08578257 4.1875 8.0625 C4.55230469 8.94035156 4.91710937 9.81820312 5.29296875 10.72265625 C6 13 6 13 5 15 C-0.77520071 8.48438894 -0.77520071 8.48438894 -1 5 C-0.5625 2.25 -0.5625 2.25 0 0 Z " fill="#DC522F" transform="translate(323,205)"/>
<path d="M0 0 C4.83628305 0.99043705 9.47618873 1.95698846 14 4 C12.6875 5.5 12.6875 5.5 11 7 C10.01 7 9.02 7 8 7 C6 5 6 5 5 3 C3.35636866 2.27840576 1.68949614 1.60648579 0 1 C0 0.67 0 0.34 0 0 Z " fill="#5B74AA" transform="translate(230,343)"/>
<path d="M0 0 C0 3.69418201 -1.28179295 5.77836178 -3 9 C-3.66 9 -4.32 9 -5 9 C-5.33 10.32 -5.66 11.64 -6 13 C-7.32 13.33 -8.64 13.66 -10 14 C-8.43632643 10.47761953 -6.30504111 7.72876006 -3.875 4.75 C-3.15054688 3.85796875 -2.42609375 2.9659375 -1.6796875 2.046875 C-0.84824219 1.03367188 -0.84824219 1.03367188 0 0 Z " fill="#EDA03C" transform="translate(233,141)"/>
<path d="M0 0 C0.57592773 1.85693359 0.57592773 1.85693359 1 4 C-0.21484375 6.2890625 -0.21484375 6.2890625 -1.9375 8.625 C-4.30117699 11.52890047 -4.30117699 11.52890047 -5 15 C-5.66 15 -6.32 15 -7 15 C-7.66 16.32 -8.32 17.64 -9 19 C-9.33 18.34 -9.66 17.68 -10 17 C-9.19555664 15.21240234 -9.19555664 15.21240234 -7.91015625 13.0859375 C-7.45576172 12.32539062 -7.00136719 11.56484375 -6.53320312 10.78125 C-6.04787109 9.9871875 -5.56253906 9.193125 -5.0625 8.375 C-4.34030273 7.17230469 -4.34030273 7.17230469 -3.60351562 5.9453125 C-2.40943235 3.95911458 -1.20804799 1.97772458 0 0 Z " fill="#F3C949" transform="translate(232,21)"/>
<path d="M0 0 C0.99 0.66 1.98 1.32 3 2 C3.99 2 4.98 2 6 2 C6 2.66 6 3.32 6 4 C6.66 4.33 7.32 4.66 8 5 C2.06 4.34 -3.88 3.68 -10 3 C-10 2.67 -10 2.34 -10 2 C-9.04287109 1.90912109 -9.04287109 1.90912109 -8.06640625 1.81640625 C-6.82697266 1.69072266 -6.82697266 1.69072266 -5.5625 1.5625 C-4.73878906 1.48128906 -3.91507812 1.40007812 -3.06640625 1.31640625 C-1.01337975 1.21069185 -1.01337975 1.21069185 0 0 Z " fill="#5D75AC" transform="translate(390,411)"/>
<path d="M0 0 C0.33 0 0.66 0 1 0 C1.13536022 2.08153935 1.23215465 4.16561206 1.3125 6.25 C1.37050781 7.41015625 1.42851562 8.5703125 1.48828125 9.765625 C1 13 1 13 -1.51953125 15.421875 C-2.33808594 15.94265625 -3.15664062 16.4634375 -4 17 C-4.33 15.02 -4.66 13.04 -5 11 C-2.525 11.495 -2.525 11.495 0 12 C0 8.04 0 4.08 0 0 Z " fill="#EEA135" transform="translate(253,191)"/>
<path d="M0 0 C0.5859375 1.87890625 0.5859375 1.87890625 1 4 C0.03542166 5.35917857 -0.96854629 6.69084721 -2 8 C-2.71433121 10.64934822 -2.71433121 10.64934822 -3 13 C-4.32 13.33 -5.64 13.66 -7 14 C-5.23570801 9.02790438 -2.6060834 4.56561939 0 0 Z " fill="#F5C940" transform="translate(176,120)"/>
<path d="M0 0 C0.33 0.66 0.66 1.32 1 2 C0.24203125 2.47179687 0.24203125 2.47179687 -0.53125 2.953125 C-1.1809375 3.38109375 -1.830625 3.8090625 -2.5 4.25 C-3.1496875 4.66765625 -3.799375 5.0853125 -4.46875 5.515625 C-4.9740625 6.00546875 -5.479375 6.4953125 -6 7 C-6 8.32 -6 9.64 -6 11 C-8.97 10.505 -8.97 10.505 -12 10 C-8.29909479 6.0747975 -4.45040344 3.05419844 0 0 Z " fill="#5A73AC" transform="translate(155,323)"/>
<path d="M0 0 C0.99 0.99 1.98 1.98 3 3 C2.34 4.98 1.68 6.96 1 9 C-0.32 8.67 -1.64 8.34 -3 8 C-1.125 2.25 -1.125 2.25 0 0 Z " fill="#F8C52C" transform="translate(66,317)"/>
<path d="M0 0 C2.50037734 2.17424117 3.43628586 3.73045798 4 7 C2.02 7 0.04 7 -2 7 C-2.33 6.34 -2.66 5.68 -3 5 C-2.34 5 -1.68 5 -1 5 C-0.67 3.35 -0.34 1.7 0 0 Z " fill="#B4246B" transform="translate(332,142)"/>
<path d="M0 0 C2.05123248 2.05123248 2.64147118 3.27005063 3.625 5.9375 C3.88539063 6.62714844 4.14578125 7.31679688 4.4140625 8.02734375 C5 10 5 10 5 13 C3.35 12.67 1.7 12.34 0 12 C0.66 11.67 1.32 11.34 2 11 C1.67 9.9275 1.34 8.855 1 7.75 C0 4 0 4 0 0 Z " fill="#D85034" transform="translate(383,357)"/>
<path d="M0 0 C1.4391134 0.28359887 2.87625518 0.57721399 4.3125 0.875 C5.11300781 1.03742188 5.91351563 1.19984375 6.73828125 1.3671875 C9 2 9 2 12 4 C9.375 4.75 9.375 4.75 6 5 C2.625 3.125 2.625 3.125 0 1 C0 0.67 0 0.34 0 0 Z " fill="#5B73AC" transform="translate(259,353)"/>
<path d="M0 0 C2.61500768 2.36595933 4.38999603 4.86049226 6 8 C5.67 8.66 5.34 9.32 5 10 C2.5 8.9375 2.5 8.9375 0 7 C-0.3125 3.3125 -0.3125 3.3125 0 0 Z " fill="#AF2869" transform="translate(437,326)"/>
<path d="M0 0 C0.66 0 1.32 0 2 0 C2.86375896 1.61992165 3.71575854 3.24611861 4.5625 4.875 C5.03816406 5.77992188 5.51382812 6.68484375 6.00390625 7.6171875 C6.33261719 8.40351563 6.66132813 9.18984375 7 10 C6.67 10.66 6.34 11.32 6 12 C5.34 12 4.68 12 4 12 C3.3291288 10.3767313 2.66342971 8.75132422 2 7.125 C1.62875 6.22007812 1.2575 5.31515625 0.875 4.3828125 C0 2 0 2 0 0 Z " fill="#AB2866" transform="translate(364,258)"/>
<path d="M0 0 C1.32 0 2.64 0 4 0 C4 0.66 4 1.32 4 2 C2.46875 3.5078125 2.46875 3.5078125 0.5 5.125 C-0.1496875 5.66382813 -0.799375 6.20265625 -1.46875 6.7578125 C-1.9740625 7.16773438 -2.479375 7.57765625 -3 8 C-3.66 7.67 -4.32 7.34 -5 7 C-4.26708288 5.8225266 -3.51296199 4.65823146 -2.75 3.5 C-2.33234375 2.8503125 -1.9146875 2.200625 -1.484375 1.53125 C-0.74960937 0.77328125 -0.74960937 0.77328125 0 0 Z " fill="#E1B24D" transform="translate(29,403)"/>
<path d="M0 0 C2.125 0.9375 2.125 0.9375 4 2 C3.02149805 3.02104551 2.02019573 4.0206121 1 5 C0.67 5 0.34 5 0 5 C0 7.31 0 9.62 0 12 C-0.33 12 -0.66 12 -1 12 C-1.33 8.37 -1.66 4.74 -2 1 C-1.34 0.67 -0.68 0.34 0 0 Z " fill="#E5502E" transform="translate(299,265)"/>
<path d="M0 0 C3.63 0.33 7.26 0.66 11 1 C11 1.33 11 1.66 11 2 C9.02 2 7.04 2 5 2 C5 2.66 5 3.32 5 4 C3.35 3.67 1.7 3.34 0 3 C0 2.01 0 1.02 0 0 Z " fill="#70C5DF" transform="translate(310,420)"/>
<path d="M0 0 C3 2 3 2 4 6 C0.7 5.01 -2.6 4.02 -6 3 C-6 2.67 -6 2.34 -6 2 C-3.1875 0.875 -3.1875 0.875 0 0 Z " fill="#E0532E" transform="translate(338,347)"/>
<path d="M0 0 C0.99 0 1.98 0 3 0 C3.33 1.32 3.66 2.64 4 4 C3.01 4.33 2.02 4.66 1 5 C0.34 4.67 -0.32 4.34 -1 4 C-1.33 4.99 -1.66 5.98 -2 7 C-2.33 6.34 -2.66 5.68 -3 5 C-1.75 2.375 -1.75 2.375 0 0 Z " fill="#F9C33D" transform="translate(118,223)"/>
<path d="M0 0 C0.66 0 1.32 0 2 0 C2.33 0.99 2.66 1.98 3 3 C4.49985609 4.66710346 4.49985609 4.66710346 6 6 C5.01 6.495 5.01 6.495 4 7 C4.33 8.65 4.66 10.3 5 12 C2.65085508 9.65085508 2.26859643 8.04320554 1.375 4.875 C1.11460937 3.96492187 0.85421875 3.05484375 0.5859375 2.1171875 C0.39257812 1.41851562 0.19921875 0.71984375 0 0 Z " fill="#B0286A" transform="translate(338,191)"/>
<path d="M0 0 C2.74277578 3.19990508 4.6302836 6.00499382 6 10 C4.68 9.34 3.36 8.68 2 8 C2.33 7.34 2.66 6.68 3 6 C1.68 6.33 0.36 6.66 -1 7 C-0.67 4.69 -0.34 2.38 0 0 Z " fill="#AE286B" transform="translate(355,182)"/>
<path d="M0 0 C1.03864166 3.11592499 1.09036928 4.0262656 0 7 C-0.99 7.495 -0.99 7.495 -2 8 C-2.72159424 9.64363134 -3.39351421 11.31050386 -4 13 C-4.66 13 -5.32 13 -6 13 C-4.58707905 8.1725201 -2.57025846 4.2837641 0 0 Z " fill="#F2C84B" transform="translate(187,100)"/>
<path d="M0 0 C0.33 0.99 0.66 1.98 1 3 C0.195625 3.45375 -0.60875 3.9075 -1.4375 4.375 C-4.08856572 5.74725665 -4.08856572 5.74725665 -5 8 C-6.32 7.67 -7.64 7.34 -9 7 C-6.03 4.69 -3.06 2.38 0 0 Z " fill="#73C8DA" transform="translate(53,402)"/>
<path d="M0 0 C0.99 0.33 1.98 0.66 3 1 C2.67 2.98 2.34 4.96 2 7 C2.66 7 3.32 7 4 7 C4 8.65 4 10.3 4 12 C1.03947516 8.63576723 0.07710178 5.30840713 -1 1 C-0.67 0.67 -0.34 0.34 0 0 Z " fill="#AC2869" transform="translate(409,368)"/>
<path d="M0 0 C3.09592835 3.5087188 4.74194623 6.49197399 6 11 C4.5 9.625 4.5 9.625 3 8 C3 7.34 3 6.68 3 6 C1.68 6.33 0.36 6.66 -1 7 C-0.67 4.69 -0.34 2.38 0 0 Z " fill="#B2276A" transform="translate(419,294)"/>
<path d="M0 0 C0.99 0.33 1.98 0.66 3 1 C1.02 3.31 -0.96 5.62 -3 8 C-3.33 6.68 -3.66 5.36 -4 4 C-3.34 4 -2.68 4 -2 4 C-1.67 3.01 -1.34 2.02 -1 1 C-0.67 0.67 -0.34 0.34 0 0 Z " fill="#EBA333" transform="translate(201,249)"/>
<path d="M0 0 C0.66 0 1.32 0 2 0 C2.33 0.99 2.66 1.98 3 3 C1.35 4.65 -0.3 6.3 -2 8 C-2.33 6.35 -2.66 4.7 -3 3 C-2.01 2.67 -1.02 2.34 0 2 C0 1.34 0 0.68 0 0 Z " fill="#F7C437" transform="translate(149,212)"/>
<path d="M0 0 C0 3 0 3 -2.5 5.6875 C-3.325 6.450625 -4.15 7.21375 -5 8 C-5.33 6.35 -5.66 4.7 -6 3 C-4.02 2.01 -2.04 1.02 0 0 Z " fill="#F1C640" transform="translate(206,140)"/>
<path d="M0 0 C0.33 1.32 0.66 2.64 1 4 C0.34 4 -0.32 4 -1 4 C-1.33 4.99 -1.66 5.98 -2 7 C-3.32 6.34 -4.64 5.68 -6 5 C-4.02 3.35 -2.04 1.7 0 0 Z " fill="#81CDE4" transform="translate(66,392)"/>
<path d="M0 0 C4.18845544 0.59835078 8.05748707 1.4413321 12 3 C12.33 3.66 12.66 4.32 13 5 C8.39146203 4.27991594 4.32762591 2.68704061 0 1 C0 0.67 0 0.34 0 0 Z " fill="#D55334" transform="translate(359,359)"/>
<path d="M0 0 C0.33 1.32 0.66 2.64 1 4 C-1.31 5.65 -3.62 7.3 -6 9 C-4.47291037 5.56404834 -2.40072955 2.88087546 0 0 Z " fill="#EEA235" transform="translate(66,356)"/>
<path d="M0 0 C0.99 0.33 1.98 0.66 3 1 C2.0479279 2.00596297 1.08812654 3.00461563 0.125 4 C-0.40867188 4.556875 -0.94234375 5.11375 -1.4921875 5.6875 C-3 7 -3 7 -5 7 C-5 6.01 -5 5.02 -5 4 C-4.34 4 -3.68 4 -3 4 C-3 3.34 -3 2.68 -3 2 C-2.01 2 -1.02 2 0 2 C0 1.34 0 0.68 0 0 Z " fill="#E6A437" transform="translate(160,287)"/>
<path d="M0 0 C2.18975773 3.28463659 2.99806563 6.20696275 4 10 C2.35 9.67 0.7 9.34 -1 9 C-0.835 8.2575 -0.67 7.515 -0.5 6.75 C0.11925696 3.80993422 0.11925696 3.80993422 0 0 Z " fill="#DA5330" transform="translate(333,230)"/>
<path d="M0 0 C1.2077558 3.62326739 0.54311128 4.64146369 -1 8 C-1.66 8 -2.32 8 -3 8 C-3 8.99 -3 9.98 -3 11 C-3.66 11 -4.32 11 -5 11 C-3.77472971 6.94718288 -2.30119506 3.55639236 0 0 Z " fill="#F4C349" transform="translate(221,40)"/>
<path d="M0 0 C0 3 0 3 -1 6 C-1.66 6 -2.32 6 -3 6 C-3 6.99 -3 7.98 -3 9 C-3.99 9 -4.98 9 -6 9 C-4.47291037 5.56404834 -2.40072955 2.88087546 0 0 Z " fill="#E7A437" transform="translate(52,374)"/>
<path d="M0 0 C0.66 1.32 1.32 2.64 2 4 C1.01 4 0.02 4 -1 4 C-1.33 4.66 -1.66 5.32 -2 6 C-2.99 5.67 -3.98 5.34 -5 5 C-5 4.01 -5 3.02 -5 2 C-3.35 2 -1.7 2 0 2 C0 1.34 0 0.68 0 0 Z " fill="#E05026" transform="translate(381,352)"/>
<path d="M0 0 C0.66 0 1.32 0 2 0 C2.33 0.99 2.66 1.98 3 3 C0.03 5.475 0.03 5.475 -3 8 C-1.125 1.125 -1.125 1.125 0 0 Z " fill="#F2A031" transform="translate(101,338)"/>
<path d="M0 0 C0.33 0.66 0.66 1.32 1 2 C0.67 2.66 0.34 3.32 0 4 C0.66 4 1.32 4 2 4 C1.67 4.66 1.34 5.32 1 6 C-1.5625 6.625 -1.5625 6.625 -4 7 C-2.79618552 4.50638429 -1.54571278 2.31856917 0 0 Z " fill="#E9A231" transform="translate(85,331)"/>
<path d="M0 0 C0.33 0.99 0.66 1.98 1 3 C-1.64738916 4.4606285 -2.89448334 5 -6 5 C-5.25 3.0625 -5.25 3.0625 -4 1 C-1.875 0.25 -1.875 0.25 0 0 Z " fill="#F3A22C" transform="translate(205,181)"/>
<path d="M0 0 C0.66 0 1.32 0 2 0 C2 1.65 2 3.3 2 5 C1.01 4.67 0.02 4.34 -1 4 C-1.66 5.65 -2.32 7.3 -3 9 C-3.33 8.34 -3.66 7.68 -4 7 C-3.22265625 5.2734375 -3.22265625 5.2734375 -2.0625 3.375 C-1.381875 2.26125 -0.70125 1.1475 0 0 Z " fill="#EBC854" transform="translate(237,12)"/>
<path d="M0 0 C3.09592835 3.5087188 4.74194623 6.49197399 6 11 C4.5 9.625 4.5 9.625 3 8 C3 7.34 3 6.68 3 6 C2.01 5.67 1.02 5.34 0 5 C0 3.35 0 1.7 0 0 Z " fill="#A82B69" transform="translate(451,350)"/>
<path d="M0 0 C2.18975773 3.28463659 2.99806563 6.20696275 4 10 C3.01 10 2.02 10 1 10 C1 9.34 1 8.68 1 8 C0.34 7.67 -0.32 7.34 -1 7 C-0.34 7 0.32 7 1 7 C0.67 4.69 0.34 2.38 0 0 Z " fill="#D65333" transform="translate(371,326)"/>
<path d="M0 0 C1.65 0 3.3 0 5 0 C3.35 1.98 1.7 3.96 0 6 C-1.125 2.25 -1.125 2.25 0 0 Z " fill="#EFA031" transform="translate(170,276)"/>
<path d="M0 0 C0.6875 1.6875 0.6875 1.6875 1 4 C-0.3125 6.75 -0.3125 6.75 -2 9 C-2.66 9 -3.32 9 -4 9 C-2.94124926 5.59687262 -1.99097846 2.98646769 0 0 Z " fill="#F2C93D" transform="translate(92,269)"/>
<path d="M0 0 C2.50037734 2.17424117 3.43628586 3.73045798 4 7 C2.35 7.66 0.7 8.32 -1 9 C-1 8.01 -1 7.02 -1 6 C-0.34 6 0.32 6 1 6 C0.67 4.02 0.34 2.04 0 0 Z " fill="#B3286A" transform="translate(364,198)"/>
<path d="M0 0 C0.33 0 0.66 0 1 0 C1 1.65 1 3.3 1 5 C0.34 5 -0.32 5 -1 5 C-1.33 6.32 -1.66 7.64 -2 9 C-2.66 9 -3.32 9 -4 9 C-2.94124926 5.59687262 -1.99097846 2.98646769 0 0 Z " fill="#F4C546" transform="translate(154,159)"/>
<path d="M0 0 C1.125 3.75 1.125 3.75 0 6 C-0.66 6 -1.32 6 -2 6 C-2.33 7.65 -2.66 9.3 -3 11 C-3.66 11 -4.32 11 -5 11 C-3.77472971 6.94718288 -2.30119506 3.55639236 0 0 Z " fill="#F2CA43" transform="translate(160,148)"/>
<path d="M0 0 C2.35953094 2.35953094 2.49141413 3.77895617 3 7 C1.68 7.99 0.36 8.98 -1 10 C-0.67 6.7 -0.34 3.4 0 0 Z " fill="#E2522D" transform="translate(269,69)"/>
<path d="M0 0 C-3.465 2.97 -3.465 2.97 -7 6 C-6.67 4.02 -6.34 2.04 -6 0 C-3 -1 -3 -1 0 0 Z " fill="#E1A238" transform="translate(95,349)"/>
<path d="M0 0 C4.42857143 5.14285714 4.42857143 5.14285714 5 9 C4.01 9 3.02 9 2 9 C2 7.35 2 5.7 2 4 C1.34 4 0.68 4 0 4 C0 2.68 0 1.36 0 0 Z " fill="#AD2B66" transform="translate(404,268)"/>
<path d="M0 0 C2.475 0.495 2.475 0.495 5 1 C3.69593116 3.01920337 2.36176581 5.01924973 1 7 C0.67 7 0.34 7 0 7 C0 4.69 0 2.38 0 0 Z " fill="#F8C743" transform="translate(119,250)"/>
<path d="M0 0 C2.18975773 3.28463659 2.99806563 6.20696275 4 10 C2.68 9.34 1.36 8.68 0 8 C0 5.36 0 2.72 0 0 Z " fill="#D65234" transform="translate(329,220)"/>
<path d="M0 0 C1.5 1.3125 1.5 1.3125 3 3 C3 3.99 3 4.98 3 6 C1.35 5.67 -0.3 5.34 -2 5 C-1.34 3.35 -0.68 1.7 0 0 Z " fill="#F9C83C" transform="translate(149,168)"/>
<path d="M0 0 C0.6875 1.6875 0.6875 1.6875 1 4 C-0.3125 6.75 -0.3125 6.75 -2 9 C-2.66 9 -3.32 9 -4 9 C-2.94124926 5.59687262 -1.99097846 2.98646769 0 0 Z " fill="#F2C940" transform="translate(168,134)"/>
<path d="M0 0 C1.80125336 2.70188004 3.00243753 4.93057703 4 8 C3.67 8.99 3.34 9.98 3 11 C-1.06153846 4.6 -1.06153846 4.6 -0.75 1.5625 C-0.5025 1.046875 -0.255 0.53125 0 0 Z " fill="#DC5331" transform="translate(274,81)"/>
<path d="M0 0 C3.96 0.33 7.92 0.66 12 1 C12 1.33 12 1.66 12 2 C6.140625 3.07421875 6.140625 3.07421875 4 3 C2.68 2.01 1.36 1.02 0 0 Z " fill="#76C0DA" transform="translate(356,427)"/>
<path d="M0 0 C0.99 0 1.98 0 3 0 C3 0.66 3 1.32 3 2 C3.99 2.33 4.98 2.66 6 3 C4.68 3.99 3.36 4.98 2 6 C2 4.68 2 3.36 2 2 C1.01 1.67 0.02 1.34 -1 1 C-0.67 0.67 -0.34 0.34 0 0 Z " fill="#EFA033" transform="translate(67,366)"/>
<path d="M0 0 C4 4.75 4 4.75 4 7 C2.68 6.67 1.36 6.34 0 6 C0 4.02 0 2.04 0 0 Z " fill="#B12768" transform="translate(428,310)"/>
<path d="M0 0 C0.66 0.33 1.32 0.66 2 1 C0.35 2.98 -1.3 4.96 -3 7 C-3.66 6.01 -4.32 5.02 -5 4 C-4.01 3.67 -3.02 3.34 -2 3 C-2 2.34 -2 1.68 -2 1 C-1.34 0.67 -0.68 0.34 0 0 Z " fill="#F5C34C" transform="translate(77,310)"/>
<path d="M0 0 C0.66 0.99 1.32 1.98 2 3 C0.35 4.32 -1.3 5.64 -3 7 C-3 5.35 -3 3.7 -3 2 C-2.01 2 -1.02 2 0 2 C0 1.34 0 0.68 0 0 Z " fill="#F49F28" transform="translate(153,292)"/>
<path d="M0 0 C1.33332095 2.6666419 0.67102033 4.16680303 0 7 C-1.32 7.33 -2.64 7.66 -4 8 C-2.68 5.36 -1.36 2.72 0 0 Z " fill="#F0C545" transform="translate(87,278)"/>
<path d="M0 0 C0.33 0.66 0.66 1.32 1 2 C1.66 2.33 2.32 2.66 3 3 C1.35 4.65 -0.3 6.3 -2 8 C-1.47731534 5.23723823 -0.89130413 2.6739124 0 0 Z " fill="#F5C53E" transform="translate(163,193)"/>
<path d="M0 0 C1.2380014 3.57644848 0.74926071 6.33694766 0 10 C-0.33 10 -0.66 10 -1 10 C-1.33 7.03 -1.66 4.06 -2 1 C-1.34 0.67 -0.68 0.34 0 0 Z " fill="#E1512E" transform="translate(285,192)"/>
<path d="M0 0 C0.99 0.66 1.98 1.32 3 2 C1.35 3.65 -0.3 5.3 -2 7 C-1.125 1.125 -1.125 1.125 0 0 Z " fill="#F7C341" transform="translate(197,149)"/>
<path d="M0 0 C0.33 0.99 0.66 1.98 1 3 C1.66 3.33 2.32 3.66 3 4 C1.68 5.32 0.36 6.64 -1 8 C-1 7.34 -1 6.68 -1 6 C-1.66 5.67 -2.32 5.34 -3 5 C-2.34 5 -1.68 5 -1 5 C-0.67 3.35 -0.34 1.7 0 0 Z " fill="#F8C63A" transform="translate(229,104)"/>
<path d="M0 0 C2.79872437 2.52788007 4.45773019 4.20411134 5 8 C4.01 8 3.02 8 2 8 C1.34 5.36 0.68 2.72 0 0 Z " fill="#9E466B" transform="translate(293,74)"/>
<path d="M0 0 C0.99 0 1.98 0 3 0 C3 2.31 3 4.62 3 7 C2.01 7.495 2.01 7.495 1 8 C0.67 5.36 0.34 2.72 0 0 Z " fill="#ED4C27" transform="translate(258,48)"/>
<path d="" fill="#CECAA4" transform="translate(0,0)"/>
<path d="" fill="#FFFFFF" transform="translate(0,0)"/>
<path d="" fill="#FFFFFF" transform="translate(0,0)"/>
<path d="" fill="#FFFFFF" transform="translate(0,0)"/>
<path d="" fill="#FFFFFF" transform="translate(0,0)"/>
<path d="" fill="#FFFFFF" transform="translate(0,0)"/>
<path d="" fill="#FFFFFF" transform="translate(0,0)"/>
<path d="" fill="#FFFFFF" transform="translate(0,0)"/>
<path d="" fill="#FFFFFF" transform="translate(0,0)"/>
<path d="" fill="#FFFFFF" transform="translate(0,0)"/>
<path d="" fill="#FFFFFF" transform="translate(0,0)"/>
<path d="" fill="#ADAD92" transform="translate(0,0)"/>
<path d="" fill="#FFFFFF" transform="translate(0,0)"/>
<path d="" fill="#FFFFFF" transform="translate(0,0)"/>
<path d="" fill="#FFFFFF" transform="translate(0,0)"/>
<path d="" fill="#FFFFFF" transform="translate(0,0)"/>
<path d="" fill="#FFFFFF" transform="translate(0,0)"/>
<path d="" fill="#FFFFFF" transform="translate(0,0)"/>
<path d="" fill="#D5C488" transform="translate(0,0)"/>
<path d="" fill="#FFFFFF" transform="translate(0,0)"/>
<path d="" fill="#FFFFFF" transform="translate(0,0)"/>
<path d="" fill="#FFFFFF" transform="translate(0,0)"/>
<path d="" fill="#FFFFFF" transform="translate(0,0)"/>
<path d="" fill="#FFFFFF" transform="translate(0,0)"/>
<path d="" fill="#FFFFFF" transform="translate(0,0)"/>
<path d="" fill="#FFFFFF" transform="translate(0,0)"/>
<path d="" fill="#FFFFFF" transform="translate(0,0)"/>
<path d="" fill="#FFFFFF" transform="translate(0,0)"/>
<path d="" fill="#FFFFFF" transform="translate(0,0)"/>
<path d="" fill="#FFFFFF" transform="translate(0,0)"/>
<path d="" fill="#FFFFFF" transform="translate(0,0)"/>
<path d="" fill="#FFFFFF" transform="translate(0,0)"/>
<path d="" fill="#FFFFFF" transform="translate(0,0)"/>
<path d="" fill="#FFFFFF" transform="translate(0,0)"/>
<path d="" fill="#FFFFFF" transform="translate(0,0)"/>
<path d="" fill="#FFFFFF" transform="translate(0,0)"/>
<path d="" fill="#FFFFFF" transform="translate(0,0)"/>
<path d="" fill="#FFFFFF" transform="translate(0,0)"/>
<path d="" fill="#FFFFFF" transform="translate(0,0)"/>
<path d="" fill="#FFFFFF" transform="translate(0,0)"/>
<path d="" fill="#FFFFFF" transform="translate(0,0)"/>
<path d="" fill="#FFFFFF" transform="translate(0,0)"/>
<path d="" fill="#FFFFFF" transform="translate(0,0)"/>
<path d="" fill="#FFFFFF" transform="translate(0,0)"/>
<path d="" fill="#FFFFFF" transform="translate(0,0)"/>
<path d="" fill="#FFFFFF" transform="translate(0,0)"/>
<path d="" fill="#FFFFFF" transform="translate(0,0)"/>
<path d="" fill="#FFFFFF" transform="translate(0,0)"/>
<path d="" fill="#FFFFFF" transform="translate(0,0)"/>
<path d="" fill="#FFFFFF" transform="translate(0,0)"/>
<path d="" fill="#FFFFFF" transform="translate(0,0)"/>
<path d="" fill="#FFFFFF" transform="translate(0,0)"/>
<path d="" fill="#FFFFFF" transform="translate(0,0)"/>
<path d="" fill="#FFFFFF" transform="translate(0,0)"/>
<path d="" fill="#FFFFFF" transform="translate(0,0)"/>
<path d="" fill="#FFFFFF" transform="translate(0,0)"/>
<path d="" fill="#FFFFFF" transform="translate(0,0)"/>
<path d="" fill="#FFFFFF" transform="translate(0,0)"/>
<path d="" fill="#FFFFFF" transform="translate(0,0)"/>
<path d="" fill="#FFFFFF" transform="translate(0,0)"/>
<path d="" fill="#FFFFFF" transform="translate(0,0)"/>
<path d="" fill="#FFFFFF" transform="translate(0,0)"/>
<path d="" fill="#FFFFFF" transform="translate(0,0)"/>
<path d="" fill="#FFFFFF" transform="translate(0,0)"/>
</svg>
